<?xml version="1.0" encoding="iso-8859-1"?>
<!-- Uploaded to: SVG Repo, www.svgrepo.com, Generator: SVG Repo Mixer Tools -->
<svg fill="#000000" height="800px" width="800px" version="1.1" id="Layer_1" xmlns="http://www.w3.org/2000/svg" xmlns:xlink="http://www.w3.org/1999/xlink" 
	 viewBox="0 0 512.003 512.003" xml:space="preserve">
<g>
	<g>
		<g>
			<path d="M175.041,179.288c1.78,0,3.571-0.588,5.061-1.796c3.449-2.797,3.977-7.862,1.179-11.311
				c-13.835-17.058-21.455-38.555-21.455-60.531c0-21.977,7.62-43.473,21.455-60.529c2.797-3.449,2.27-8.512-1.179-11.31
				c-3.45-2.801-8.513-2.271-11.311,1.179c-16.152,19.911-25.048,45.007-25.048,70.66s8.896,50.749,25.048,70.662
				C170.38,178.271,172.7,179.288,175.041,179.288z"/>
			<path d="M371.409,209.499c1.49,1.209,3.281,1.797,5.061,1.797c2.341,0,4.661-1.016,6.25-2.975
				c23.459-28.921,36.379-65.382,36.379-102.671c0-37.289-12.92-73.75-36.379-102.671c-2.798-3.45-7.863-3.979-11.31-1.179
				c-3.449,2.797-3.978,7.861-1.179,11.31c21.143,26.066,32.787,58.93,32.787,92.54c0,33.61-11.644,66.475-32.787,92.54
				C367.431,201.637,367.96,206.701,371.409,209.499z"/>
			<path d="M352.178,105.649c0,21.976-7.62,43.473-21.456,60.532c-2.797,3.449-2.27,8.513,1.179,11.311
				c1.49,1.208,3.281,1.796,5.061,1.796c2.341,0,4.661-1.016,6.25-2.975c16.153-19.913,25.049-45.009,25.049-70.662
				c0-25.655-8.896-50.749-25.049-70.66c-2.799-3.452-7.862-3.977-11.311-1.179s-3.977,7.861-1.179,11.31
				C344.558,62.176,352.178,83.673,352.178,105.649z"/>
			<path d="M409.984,455.818h-20.699L304.37,156.037c13.254-12.728,21.529-30.604,21.529-50.387
				c0-38.541-31.357-69.898-69.898-69.898c-38.542,0-69.898,31.357-69.898,69.898c0,19.783,8.275,37.659,21.529,50.387
				l-84.915,299.781h-20.699c-7.889,0-14.308,6.417-14.308,14.305v27.571c0,7.889,6.418,14.309,14.308,14.309h77.86
				c7.888,0,14.306-6.419,14.306-14.309v-27.571c0-7.887-6.418-14.305-14.306-14.305h-4.786l5.756-20.322l75.144-58.893
				l75.205,59.048l5.713,20.168h-4.786c-7.888,0-14.306,6.417-14.306,14.305v27.571c0,7.889,6.418,14.309,14.306,14.309h77.86
				c7.889,0,14.308-6.419,14.308-14.309v-27.571C424.292,462.235,417.874,455.818,409.984,455.818z M202.186,105.649
				c0-29.674,24.142-53.815,53.815-53.815c29.674,0,53.815,24.142,53.815,53.815c0,29.674-24.142,53.815-53.815,53.815
				C226.327,159.464,202.186,135.324,202.186,105.649z M265.61,204.101v100.94l-9.609,7.531l-9.609-7.531v-100.94l8.099-28.593
				c0.504,0.012,1.004,0.039,1.511,0.039c0.507,0,1.006-0.027,1.511-0.039L265.61,204.101z M212.892,322.374l5.367-18.95
				l24.706,19.365l-14.772,11.578L212.892,322.374z M215.156,344.584l-10.998,8.619l3.996-14.107L215.156,344.584z M222.995,286.702
				l7.314-25.823v31.556L222.995,286.702z M178.102,471.9v24.019h-74.309V471.9H178.102z M158.377,455.818h-18.944l81.991-289.46
				c5.272,3.015,10.964,5.377,16.977,6.942L158.377,455.818z M188.288,409.231l8.43-29.762l97.025-76.044l5.367,18.95
				L188.288,409.231z M281.693,292.435v-31.556l7.314,25.823L281.693,292.435z M303.849,339.097l3.997,14.11l-10.999-8.622
				L303.849,339.097z M269.027,366.388l14.783-11.587l31.475,24.672l8.464,29.88L269.027,366.388z M273.602,173.3
				c6.013-1.565,11.705-3.927,16.978-6.942l81.991,289.46h-18.944L273.602,173.3z M408.21,495.919h-74.309V471.9h74.309V495.919z"/>
			<path d="M135.534,211.295c1.78,0,3.571-0.588,5.061-1.797c3.449-2.797,3.978-7.861,1.179-11.31
				c-21.143-26.066-32.787-58.93-32.787-92.54c0-33.61,11.644-66.475,32.787-92.54c2.797-3.449,2.27-8.512-1.179-11.31
				c-3.449-2.799-8.512-2.271-11.31,1.179c-23.46,28.922-36.38,65.385-36.38,102.672s12.92,73.75,36.38,102.671
				C130.874,210.279,133.194,211.295,135.534,211.295z"/>
		</g>
	</g>
</g>
</svg>